<mxfile host="app.diagrams.net" modified="2021-01-31T16:48:41.307Z" agent="5.0 (Windows)" etag="xyXktr76aiMLegPhQ2eN" version="14.2.7" type="github">
  <diagram id="5_aohHFVvhJg3DNA72NS" name="Page-1">
    <mxGraphModel dx="1038" dy="547" grid="1" gridSize="10" guides="1" tooltips="1" connect="1" arrows="1" fold="1" page="1" pageScale="1" pageWidth="1169" pageHeight="827" math="0" shadow="0">
      <root>
        <mxCell id="0" />
        <mxCell id="1" parent="0" />
        <mxCell id="qoAdScPvT66UWbfDdBSW-1" value="Pre-CRAC and CRAC" style="swimlane;" parent="1" vertex="1">
          <mxGeometry x="10" y="10" width="960" height="760" as="geometry" />
        </mxCell>
        <mxCell id="qoAdScPvT66UWbfDdBSW-2" value="Start" style="rounded=1;whiteSpace=wrap;html=1;" parent="qoAdScPvT66UWbfDdBSW-1" vertex="1">
          <mxGeometry x="40" y="50" width="120" height="60" as="geometry" />
        </mxCell>
        <mxCell id="qoAdScPvT66UWbfDdBSW-5" value="SDDRD prepares calendar for committee and sends notification to organize Pre-CRACs and CRACs by January " style="rounded=0;whiteSpace=wrap;html=1;" parent="qoAdScPvT66UWbfDdBSW-1" vertex="1">
          <mxGeometry x="15" y="180" width="170" height="90" as="geometry" />
        </mxCell>
        <mxCell id="qoAdScPvT66UWbfDdBSW-4" value="" style="edgeStyle=orthogonalEdgeStyle;rounded=0;orthogonalLoop=1;jettySize=auto;html=1;" parent="qoAdScPvT66UWbfDdBSW-1" source="qoAdScPvT66UWbfDdBSW-2" target="qoAdScPvT66UWbfDdBSW-5" edge="1">
          <mxGeometry relative="1" as="geometry">
            <mxPoint x="100" y="170" as="targetPoint" />
          </mxGeometry>
        </mxCell>
        <mxCell id="qoAdScPvT66UWbfDdBSW-6" value="RDs/DRDs organizes Pre-CRAC and CRAC at the Eco-Regional Research Programmes by mid-February " style="whiteSpace=wrap;html=1;rounded=0;" parent="qoAdScPvT66UWbfDdBSW-1" vertex="1">
          <mxGeometry x="10" y="330" width="180" height="85" as="geometry" />
        </mxCell>
        <mxCell id="qoAdScPvT66UWbfDdBSW-7" value="" style="edgeStyle=orthogonalEdgeStyle;rounded=0;orthogonalLoop=1;jettySize=auto;html=1;" parent="qoAdScPvT66UWbfDdBSW-1" source="qoAdScPvT66UWbfDdBSW-5" target="qoAdScPvT66UWbfDdBSW-6" edge="1">
          <mxGeometry relative="1" as="geometry" />
        </mxCell>
        <mxCell id="qoAdScPvT66UWbfDdBSW-10" value="DRDs prepares a report and PI/RS receives feedback from Pre-CRAC and CRAC within meeting and through feedback form" style="whiteSpace=wrap;html=1;rounded=0;" parent="qoAdScPvT66UWbfDdBSW-1" vertex="1">
          <mxGeometry x="20" y="650" width="160" height="82.5" as="geometry" />
        </mxCell>
        <mxCell id="qoAdScPvT66UWbfDdBSW-16" value="SDDRD receives and endorses reviewed and accepted research proposal in preparation for the Pre-Consultative and Consultative meetings by end of April" style="whiteSpace=wrap;html=1;rounded=0;" parent="qoAdScPvT66UWbfDdBSW-1" vertex="1">
          <mxGeometry x="730" y="450.01" width="190" height="100" as="geometry" />
        </mxCell>
        <mxCell id="pu_-sdHc4Un5ql-n0bc1-1" value="Approved?" style="rhombus;whiteSpace=wrap;html=1;" vertex="1" parent="qoAdScPvT66UWbfDdBSW-1">
          <mxGeometry x="560" y="460.01" width="80" height="80" as="geometry" />
        </mxCell>
        <mxCell id="pu_-sdHc4Un5ql-n0bc1-3" value="" style="edgeStyle=orthogonalEdgeStyle;rounded=0;orthogonalLoop=1;jettySize=auto;html=1;entryX=0;entryY=0.5;entryDx=0;entryDy=0;" edge="1" parent="qoAdScPvT66UWbfDdBSW-1" source="pu_-sdHc4Un5ql-n0bc1-1" target="qoAdScPvT66UWbfDdBSW-16">
          <mxGeometry relative="1" as="geometry">
            <mxPoint x="590" y="630.01" as="targetPoint" />
          </mxGeometry>
        </mxCell>
        <mxCell id="qoAdScPvT66UWbfDdBSW-20" value="End" style="rounded=1;whiteSpace=wrap;html=1;" parent="qoAdScPvT66UWbfDdBSW-1" vertex="1">
          <mxGeometry x="775" y="640" width="100" height="60" as="geometry" />
        </mxCell>
        <mxCell id="qoAdScPvT66UWbfDdBSW-19" value="" style="edgeStyle=orthogonalEdgeStyle;rounded=0;orthogonalLoop=1;jettySize=auto;html=1;" parent="qoAdScPvT66UWbfDdBSW-1" source="qoAdScPvT66UWbfDdBSW-16" target="qoAdScPvT66UWbfDdBSW-20" edge="1">
          <mxGeometry relative="1" as="geometry">
            <mxPoint x="865" y="500.01" as="targetPoint" />
          </mxGeometry>
        </mxCell>
        <mxCell id="pu_-sdHc4Un5ql-n0bc1-8" value="Notify PI/RS" style="shape=process;whiteSpace=wrap;html=1;backgroundOutline=1;" vertex="1" parent="qoAdScPvT66UWbfDdBSW-1">
          <mxGeometry x="540" y="600" width="120" height="60" as="geometry" />
        </mxCell>
        <mxCell id="pu_-sdHc4Un5ql-n0bc1-7" value="" style="edgeStyle=orthogonalEdgeStyle;rounded=0;orthogonalLoop=1;jettySize=auto;html=1;" edge="1" parent="qoAdScPvT66UWbfDdBSW-1" source="pu_-sdHc4Un5ql-n0bc1-1" target="pu_-sdHc4Un5ql-n0bc1-8">
          <mxGeometry relative="1" as="geometry">
            <mxPoint x="600" y="610.01" as="targetPoint" />
          </mxGeometry>
        </mxCell>
        <mxCell id="pu_-sdHc4Un5ql-n0bc1-10" value="" style="edgeStyle=orthogonalEdgeStyle;rounded=0;orthogonalLoop=1;jettySize=auto;html=1;entryX=0.5;entryY=0;entryDx=0;entryDy=0;" edge="1" parent="qoAdScPvT66UWbfDdBSW-1" source="pu_-sdHc4Un5ql-n0bc1-8" target="qoAdScPvT66UWbfDdBSW-20">
          <mxGeometry relative="1" as="geometry">
            <mxPoint x="750" y="630" as="targetPoint" />
            <Array as="points">
              <mxPoint x="825" y="620" />
            </Array>
          </mxGeometry>
        </mxCell>
        <mxCell id="pu_-sdHc4Un5ql-n0bc1-11" value="no" style="text;html=1;strokeColor=none;fillColor=none;align=center;verticalAlign=middle;whiteSpace=wrap;rounded=0;" vertex="1" parent="qoAdScPvT66UWbfDdBSW-1">
          <mxGeometry x="593" y="550.01" width="40" height="20" as="geometry" />
        </mxCell>
        <mxCell id="pu_-sdHc4Un5ql-n0bc1-12" value="yes" style="text;html=1;strokeColor=none;fillColor=none;align=center;verticalAlign=middle;whiteSpace=wrap;rounded=0;" vertex="1" parent="qoAdScPvT66UWbfDdBSW-1">
          <mxGeometry x="660" y="480" width="40" height="20" as="geometry" />
        </mxCell>
        <mxCell id="qoAdScPvT66UWbfDdBSW-11" value="" style="edgeStyle=orthogonalEdgeStyle;rounded=0;orthogonalLoop=1;jettySize=auto;html=1;" parent="1" source="qoAdScPvT66UWbfDdBSW-8" target="qoAdScPvT66UWbfDdBSW-10" edge="1">
          <mxGeometry relative="1" as="geometry" />
        </mxCell>
        <mxCell id="qoAdScPvT66UWbfDdBSW-8" value="PI, RS share progress of the previous research activities and new proposal for funding by mid-March to RD, DRDs" style="whiteSpace=wrap;html=1;rounded=0;" parent="1" vertex="1">
          <mxGeometry x="20" y="505" width="180" height="85" as="geometry" />
        </mxCell>
        <mxCell id="qoAdScPvT66UWbfDdBSW-9" value="" style="edgeStyle=orthogonalEdgeStyle;rounded=0;orthogonalLoop=1;jettySize=auto;html=1;" parent="1" source="qoAdScPvT66UWbfDdBSW-6" target="qoAdScPvT66UWbfDdBSW-8" edge="1">
          <mxGeometry relative="1" as="geometry" />
        </mxCell>
        <mxCell id="qoAdScPvT66UWbfDdBSW-17" value="" style="edgeStyle=orthogonalEdgeStyle;rounded=0;orthogonalLoop=1;jettySize=auto;html=1;" parent="1" source="qoAdScPvT66UWbfDdBSW-14" target="pu_-sdHc4Un5ql-n0bc1-1" edge="1">
          <mxGeometry relative="1" as="geometry">
            <mxPoint x="560" y="510" as="targetPoint" />
          </mxGeometry>
        </mxCell>
        <mxCell id="qoAdScPvT66UWbfDdBSW-14" value="PI, RS refine and submit research proposal based on stakeholders&#39; feedback to SDDRD through DRD, RD and DDs two weeks after CRAC" style="whiteSpace=wrap;html=1;rounded=0;" parent="1" vertex="1">
          <mxGeometry x="310" y="454.38" width="170" height="111.25" as="geometry" />
        </mxCell>
        <mxCell id="qoAdScPvT66UWbfDdBSW-13" value="" style="edgeStyle=orthogonalEdgeStyle;rounded=0;orthogonalLoop=1;jettySize=auto;html=1;entryX=0.006;entryY=0.446;entryDx=0;entryDy=0;entryPerimeter=0;" parent="1" source="qoAdScPvT66UWbfDdBSW-10" target="qoAdScPvT66UWbfDdBSW-14" edge="1">
          <mxGeometry relative="1" as="geometry" />
        </mxCell>
      </root>
    </mxGraphModel>
  </diagram>
</mxfile>
